<svg width="38" height="40" viewBox="0 0 38 40" fill="none" xmlns="http://www.w3.org/2000/svg">
<path d="M35.2362 21.8435C32.9952 21.0315 30.5093 21.212 28.4073 22.3374L24.9808 23.8788C24.704 22.3007 23.4919 21.1148 21.9959 21.0692C21.9871 21.069 16.8583 21.0111 16.8583 21.0111C12.7532 19.885 10.0858 21.332 8.56421 22.7579C8.25301 23.0496 7.97934 23.3498 7.73848 23.646C7.32788 23.2038 6.6031 23.0856 6.07455 23.3762L1.41891 25.9354C0.815064 26.2674 0.552329 26.9956 0.805577 27.6358L5.35549 39.1377C5.65447 39.8934 6.57327 40.2274 7.29019 39.8333L11.9458 37.2742C12.3822 37.0343 12.6392 36.5873 12.6533 36.1162H19.6018C20.7352 36.1162 21.8542 35.8185 22.8378 35.2553C22.8378 35.2553 35.9062 27.7589 35.9799 27.6919C37.81 26.027 37.8664 22.7966 35.2362 21.8435C36.2854 22.2237 32.9952 21.0315 35.2362 21.8435ZM7.33182 36.688L3.79643 27.7508L6.03267 26.5216L9.56806 35.4588L7.33182 36.688ZM34.2312 25.5773L21.4744 32.8826C20.9051 33.2087 20.2575 33.381 19.6016 33.381H11.6916L9.03566 26.667C9.26318 26.2034 9.7113 25.4342 10.4391 24.7522C11.9296 23.3555 13.8942 22.998 16.2787 23.6898C16.398 23.7244 16.5214 23.7427 16.6455 23.7441L21.9176 23.8034C22.0522 23.815 22.3007 24.1143 22.3007 24.5679C22.3007 25.035 22.0441 25.3327 21.9099 25.3327H16.7299V28.0679H21.9099C22.5516 28.0679 23.1488 27.8509 23.6459 27.4791L29.5775 24.8109C29.609 24.7968 29.6398 24.7815 29.67 24.765C31.0929 23.9914 32.7811 23.8636 34.3015 24.4145C34.9031 24.6327 34.4685 25.3364 34.2312 25.5773ZM25.9996 19.7079C20.5665 19.7079 16.1463 15.2874 16.1463 9.85393C16.1463 4.42051 20.5664 0 25.9996 0C31.4328 0 35.8528 4.42051 35.8528 9.85393C35.8528 15.2874 31.4327 19.7079 25.9996 19.7079ZM25.9996 2.73521C22.0771 2.73521 18.886 5.92863 18.886 9.85393C18.886 13.7792 22.0772 16.9727 25.9996 16.9727C29.9222 16.9727 33.1133 13.7791 33.1133 9.85393C33.1133 5.92872 29.9221 2.73521 25.9996 2.73521Z" fill="#C1BBEB"/>
</svg>
